<svg xmlns="http://www.w3.org/2000/svg" xml:space="preserve" viewBox="0 0 150 150"><path fill="#fdfdfd" d="M71 151H1.033V1.105h149.79V151c-.825 0-1.824 0-3.316-.362-2.669-3.49-5.1-6.477-6.93-9.795-1.216-2.202-1.572-4.878-2.348-7.362-.035-.02-.064-.096.306-.3.416-8.195.462-16.185.557-24.596.068-1.83.087-3.24.288-4.759.182-.11.187-.534.45-.815.391-3.862.519-7.444.753-11.413.036-1.453-.037-2.517.015-4.022.057-3.481-.011-6.522.029-9.893.035-.782-.037-1.234-.02-1.925.015-.393-.059-.546-.039-.96.03-.432-.033-.605.027-1.078.06-1.153-.004-2.007-.019-3.13-.085-.395-.219-.52-.394-.969-.728-.825-1.415-1.326-2.084-2.145.331-1.032.645-1.746 1.092-2.676-.208-.787-.55-1.356-.937-2.339a244 244 0 0 0-2.848-9.78c-.074-.001-.083-.148-.011-.514-.498-1.964-1.068-3.562-1.737-5.479-4.647-5.707-9.195-11.096-13.903-16.804-2.226-1.272-4.291-2.227-6.427-3.146-.07.035.001-.105-.131-.446-2.167-.95-4.202-1.557-6.455-2.369-.725-.45-1.233-.696-2.092-1.115-1.118-.05-1.884.074-2.876.014-.71-.482-1.194-.781-1.893-1.338-1.102-.22-1.988-.182-3.304-.24-2.481-.032-4.532.03-6.95.003-1.119-.03-1.869.03-3-.004-2.468.51-4.555 1.113-7.023 1.6-2.124.352-3.868.818-5.903 1.225-.505.244-.719.546-1.282.914-2.288.948-4.227 1.832-6.403 2.786-.499.452-.76.833-1.372 1.284-3.556 3.211-6.762 6.352-9.979 9.553-.011.06-.13.085-.498.091-.426.639-.483 1.271-.528 1.945.013.04-.07.02-.366.025-.683.622-1.072 1.238-1.722 1.98-.45.65-.638 1.175-1.121 1.888-.69 1.238-1.082 2.288-1.747 3.393-.32.384-.369.713-.484 1.43-.437 1.81-.808 3.23-1.33 4.865-.513.743-.876 1.27-1.369 2.2-.49 2.493-.85 4.58-1.448 6.868-.498.703-.76 1.207-1.117 2.085-1.523 3.39-2.953 6.405-4.674 9.54-1.945 1.782-3.598 3.445-5.607 5.099-6.122 2.651-11.775 5.605-17.688 7.882C9.709 89.92 4.559 94.902 4.896 99.207c.453 5.788 4.676 7.875 9.676 8.218 8.601.592 17.232.777 25.854 1.029.687.02 1.398-.766 2.35-1.13.58-.043.907-.135 1.678-.064 6.141.045 11.84-.073 17.851-.115.732.172 1.15.27 1.65.712 5.929 1.864 10.652 8.225 10.166 15.397-.63 9.276-2.044 18.5-3.121 27.746"/><path fill="#fdfaef" d="M135 151c-18.354 0-36.708 0-55.415-.287.101-1.146.554-2.005 1.416-2.875 3.31-5.842 4.306-11.795 1.51-18.38-.146-2.746-.243-5.1.02-7.546 2.189-3.96 1.658-7.284-2.191-10.083-1.367-2.15-2.443-4.126-3.687-6.409 1.825-.602 3.662-.853 5.082-1.76 2.188-1.397 5.495-3.053 5.75-4.948.306-2.26-1.744-5.176-3.426-7.288-2.42-3.04-5.427-5.61-7.908-8.602-.196-3.21-.518-6.232-1.213-9.167-.303-1.278-1.374-2.374-2.043-3.565.054-.012-.012.075.023-.324-.9-9.782-8.202-11.002-15.185-12.254.353-3.346.692-6.555 1.1-9.692.069.071-.107-.021.273-.014.82-1.009 1.259-2.024 1.752-2.963.054.077-.097-.034.262-.008.956-.215 1.723-.295 2.126-.72 4.829-5.093 10.057-9.427 17.394-10.393.563-.074.91-1.783 1.55-2.935.721-.186 1.249-.17 1.795.142 1.778 3.371 2.822.888 4.454-.354 2.12-.041 3.829.048 5.634.387 1.049.084 2.001-.081 3.267-.385 1.435.367 2.558.873 3.773 1.732a178 178 0 0 0 12.469 6.591c1.278.613 2.756.809 4.404 1.339.837.686 1.413 1.228 2.03 2.05.322.52.601.761.952 1.306.568.45 1.065.595 1.612.775.05.034.128.13-.062.46 2.011 4.983 4.316 9.587 6.371 14.3 1.12 2.567 1.817 5.319 2.732 8.44.107 4.118.187 7.784.135 11.832-.044 1.448.044 2.514.033 3.991-.034 1.818.03 3.222-.036 4.946-.043.76.044 1.2.033 2.101-.593 7.184-1.334 13.902-1.52 20.635-.251 9.043-1.66 18.251 2.515 27.088-.213.535-.417.88-.62 1.254.002.03-.001.089-.187.332.176.698.537 1.153.887 1.973.327 1.693.664 3.02 1.057 4.717.398 1.766.74 3.163 1.082 4.561M97.996 60.818l-17.13-.71c-.438 4.332 1.703 6.936 7.142 8.177 3.527.805 10.894-2.23 11.58-4.942.171-.672-.63-1.59-1.592-2.525"/><path fill="#151815" d="M131.594 67.117c-.888-2.668-1.585-5.42-2.705-7.987-2.055-4.713-4.36-9.317-6.066-14.449.389-1.215.283-1.948.124-2.819-.139-.187-.224-.237-.308-.286.12.141.24.283.33.82-.167.912-.303 1.426-.44 1.94-.496-.146-.993-.292-1.623-1.012-.4-.82-.666-1.067-.932-1.314-.575-.543-1.15-1.085-2.184-2.021-1.664-1.777-2.87-3.16-3.897-4.665.179-.307.179-.493.179-.679-.171.215-.342.43-.836.894-4.287-1.03-8.252-2.307-12.216-3.584-1.122-.505-2.245-1.01-4.049-1.518-1.452.09-2.223.183-2.994.275-1.71-.089-3.419-.178-5.928-.277-1.895.06-2.988.13-4.082.199-.528-.017-1.056-.033-2.2.139-10.079.878-16.312 6.323-21.006 14.036 0 0 .151.11-.2.167-.846.98-1.34 1.901-1.835 2.823 0 0 .176.092-.166.26-2.059 5.032-3.775 9.897-5.475 15.078.42.665.824 1.014 1.228 1.362.207-.558.413-1.116.787-2.034 6.344-3.472 14.076-.46 16.277 5.85.246.705.992 1.237 1.506 1.85 0 0 .066-.087.014.356.958 4.47 1.968 8.497 2.978 12.523 2.757 2.77 5.765 5.34 8.184 8.38 1.682 2.112 3.732 5.028 3.427 7.288-.256 1.895-3.563 3.551-5.751 4.949-1.42.906-3.257 1.157-5.082 1.76 1.244 2.282 2.32 4.258 3.723 6.836.816 3.65 1.306 6.699 1.795 9.748.097 2.354.194 4.707.12 7.808-.68 6.51-1.19 12.273-1.7 18.036-.452.86-.905 1.718-1.474 2.864-2.488.287-4.858.287-7.673.287.633-9.246 2.047-18.47 2.677-27.746.486-7.172-4.237-13.533-10.168-15.733-.42-1.143-.76-1.604-1.098-2.065l-.863 1.613c-5.698.118-11.397.236-17.589-.164-1.56-.782-2.627-1.046-3.694-1.31l1.814 1.682c-.7.411-1.41 1.197-2.097 1.177-8.622-.252-17.253-.437-25.854-1.029-5-.343-9.223-2.43-9.676-8.218-.337-4.305 4.813-9.287 10.069-11.31 5.913-2.278 11.566-5.232 17.898-7.624 4.978-.238 6.77-2.25 5.69-5.478 1.428-3.015 2.858-6.03 4.658-9.445.606-1.02.841-1.64 1.076-2.26.361-2.087.722-4.175 1.497-6.68.688-1.078.961-1.74 1.235-2.403.37-1.42.742-2.84 1.356-4.788.448-.762.56-1.035.579-1.346.393-1.05.786-2.101 1.554-2.983a18 18 0 0 1 1.835 1.449l-.53-3.818c.387-.617.776-1.233 1.56-1.659.582.19.77.188.956.186l-.703-.448c.057-.633.114-1.265.663-1.72.68.176.869.176 1.057.175l-.67-.51c3.205-3.14 6.411-6.282 10.177-9.232 1.234.123 1.908.054 2.582-.014l-1.184-1.602c1.94-.883 3.879-1.767 6.415-2.768.84-.346 1.083-.574 1.325-.802 1.744-.466 3.488-.932 5.832-1.01 2.795-.335 4.99-1.057 7.184-1.78.75-.06 1.5-.12 2.723.256 2.74.206 5.008-.024 7.277-.254.885-.037 1.77-.075 2.866.457.847.782 1.486.996 2.125 1.209.767-.123 1.533-.246 2.676.092 1.013.65 1.649.84 2.285 1.03 2.035.608 4.07 1.216 5.926 2.279a9.3 9.3 0 0 1-1.382 1.622c.219.144.616.43.63.412.444-.561.851-1.152 1.264-1.738 2.066.955 4.131 1.91 6.189 3.4-.074 1.28-.49 2.295-.153 2.73 3.555 4.6 7.155 9.173 10.952 13.573.579.671 2.22.424 3.371.602.57 1.598 1.14 3.196 1.457 5.283-.254.674-.257.857-.259 1.041l.524-.65c.91 3.123 1.82 6.245 2.442 9.841a20 20 0 0 1-1.394 1.707l2.53.787c-.313.714-.627 1.428-.977 2.816.28 1.506.596 2.338 1.296 3.132.64-.06.897-.082 1.153-.104.063.853.126 1.707-.2 2.941-.715.99-1.041 1.599-1.667 2.251-1.684 3.051 1.008 1.469 1.858 1.96.068 3.042.136 6.083-.157 9.615-.702.79-1.045 1.089-1.657 1.518-.596.954-.923 1.78-1.25 2.604.515.084 1.03.169 1.79.248.247-.005.738-.039.738-.039l.493.028c-.127 3.581-.255 7.163-.99 10.866-2.225-.867-3.84-1.857-5.463-3.183-.002-.787.003-1.236.286-1.822.093-1.038-.091-1.938-.284-3.257-.012-1.81-.015-3.203.241-4.805.088-1.4-.084-2.589-.26-4.113-.003-.78 0-1.227.275-1.92.096-2.077-.082-3.907-.264-6.197-.007-2.548.281-4.693-.116-6.703-.265-1.344-1.504-2.496-2.307-3.735m7.83 14.605c-.15-.575-.3-1.151-1.04-1.645l-.945 1.214c.508.238 1.017.476 1.984.431m-104.696 3.72-1.967-1.057c.08.861.159 1.723-.237 2.957.275.628.55 1.255.364 2.413L14.63 99.127l.14 1.034c7.417 0 14.832 0 22.433.751 3.092 1.119 6.27 2.953 8.917-1.551.302-.13.605-.258 1.193.241 5.253-.243 10.505-.486 16.57-.677 3.617-.815 7.233-1.63 11.698-2.638-1.191-1.653-2.003-3.434-3.362-4.553-6.103-5.026-7.118-12.264-7.882-19.238-.449-4.09-2.226-4.59-5.385-5.102-.979.174-1.958.349-3.614.727-3.44-1.487-4.535.24-5.437 3.354-.684 2.359-2.445 4.405-4.444 6.631-.459.716-.918 1.433-1.458 2.529-.112.257-.304.419-1.367.49-.502.772-1.003 1.545-1.776 2.757-.545.402-1.09.803-2.364 1.194-1.166.305-2.331.61-3.764.365m19.008-32.606-1.219-.161.585 1.565c.262-.29.524-.58.634-1.404M106.776 30.6c.36-.425.738-.837 1.048-1.296.03-.044-.367-.376-.566-.574-.297.5-.594 1.001-.482 1.87m30.62 55.6 1.176.014c.001-.163.014-.467.002-.468-.39-.03-.782-.032-1.179.454m-17.689-47.634.852-.814c-.112-.117-.316-.343-.324-.337-.3.253-.58.527-.528 1.15M59.52 63.92l.727-.433c-.25-.133-.564-.428-.733-.36-.21.084-.3.468.006.793m57.397-29.44-.431-.725c-.133.25-.426.562-.36.732.084.209.467.298.791-.007m-29.1-6.742.47-.341c-.218.023-.436.045-.47.34"/><path fill="#181b18" d="M134.03 100.006c1.616.99 3.231 1.979 5.192 3.127.345.159.34.584-.18.844-2.196 2.052-3.414 3.793 0 5.03-.045 7.99-.091 15.98-.743 24.456-.712 1.08-.818 1.673-.925 2.267l.631.056.26-2.284c.74 2.463 1.096 5.14 2.311 7.341 1.831 3.318 4.262 6.305 6.431 9.795-3.7.362-7.393.362-11.546.362-.803-1.398-1.145-2.795-1.22-4.827 1.07-3.29 1.21-5.693-2.081-6.786.204-.345.408-.689 1.034-1.626-.11-5.62-1.175-10.66-1.05-15.671.183-7.373 1.215-14.724 1.886-22.084M133.657 46.688c-1.051.141-2.693.388-3.272-.283-3.797-4.4-7.397-8.972-10.952-13.573-.336-.435.079-1.45.313-2.413 4.716 5.173 9.264 10.562 13.91 16.27M38.26 74.915c1.374 3.108-.42 5.12-5.04 5.366 1.442-1.921 3.095-3.584 5.04-5.366M86.626 21.243a28.5 28.5 0 0 1-6.422 1.989c1.867-.876 3.954-1.48 6.422-1.989M96.576 21.244c-1.838.325-4.106.555-6.478.44 1.946-.41 3.997-.472 6.478-.44"/><path fill="#040604" d="M139.092 108.585c-3.464-.815-2.246-2.556-.232-4.498.32 1.258.3 2.668.232 4.498"/><path fill="#181b18" d="M140.627 77.683c-.958-.162-3.65 1.42-1.725-1.662.542-.074 1.014-.19 1.162-.137s.454.114.454.114c.072.451.144.903.109 1.685"/><path fill="#040705" d="M42.775 107.325c-.856-.608-1.461-1.17-2.066-1.73 1.067.264 2.133.528 3.251 1.147-.277.447-.605.539-1.185.583"/><path fill="#181b18" d="M139.19 64.8c-.977-.046-1.82-.309-2.664-.571.369-.411.738-.822 1.44-1.294.674.509 1.016 1.078 1.224 1.865"/><path fill="#080b09" d="M140.583 91.598c-.107.388-.6.36-.6.36s-.491.034-.737-.335c-.253-1.115-.262-1.862-.27-2.608.341-.3.684-.598 1.262-.948.308 1.014.38 2.078.345 3.53"/><path fill="#181b18" d="M51.55 42.646c.439 1.147.616 2.42.793 3.693-.487-.427-.973-.854-1.539-1.637.108-.881.296-1.406.746-2.056M66.015 27.768c.63.463 1.026.997 1.42 1.53-.674.07-1.348.138-2.232-.055.051-.642.313-1.023.812-1.475M138.99 71.002c-.315-.832-.632-1.664-.929-2.852.706.145 1.393.646 1.868 1.588-.454.715-.696.99-.938 1.264M46.869 54.222a4.9 4.9 0 0 1-.956 1.785c.079-.515.442-1.042.956-1.785"/><path fill="#040705" d="M62.305 107.145c-.025-.613.262-1.151.55-1.689.338.461.677.922 1.018 1.72-.417.238-.836.141-1.568-.031"/><path fill="#181b18" d="M106.74 23.923c-.417.014-1.053-.175-1.715-.654.483-.042.99.204 1.716.654M101.773 22.822c-.414-.03-1.053-.244-1.684-.768.49-.013.974.286 1.684.768M44.051 63.29c.001.42-.234 1.04-.746 1.685-.014-.478.248-.982.746-1.685"/><path fill="#040604" d="M138.23 133.481a48 48 0 0 1-.225 2.305l-.631-.056c.107-.594.213-1.187.556-2.063.235-.282.264-.206.3-.186"/><path fill="#080b09" d="M139.916 75.831s-.472.116-.714.147c.085-.578.411-1.187 1.003-1.877.33.092.394.265.228.792-.362.53-.458.725-.517.938M139.375 70.964c-.142-.237.1-.511.595-.902.387.009.521.133.606.528-.304.292-.56.314-1.201.374"/><path fill="#151815" d="M140.064 75.884c-.089-.266.007-.46.275-.731.21.06.283.212.268.605-.089.24-.396.179-.543.126"/><path fill="#181b18" d="M73.7 24.068c.049.287-.194.515-.684.796-.035-.25.179-.552.684-.796M48.682 47.927c.253.257.141.53-.24.904-.129-.191-.08-.52.24-.904"/><path fill="#0f100e" d="M98.3 60.883c.658.87 1.46 1.788 1.289 2.46-.687 2.712-8.054 5.747-11.58 4.942-5.44-1.241-7.58-3.845-7.143-8.177 5.742.238 11.436.474 17.433.775"/><path fill="#010301" d="M134.023 99.669c-.664 7.697-1.696 15.048-1.88 22.421-.124 5.01.94 10.052 1.06 15.481-4.597-8.245-3.188-17.453-2.938-26.496.187-6.733.928-13.45 1.874-20.644.924-.457 1.396-.447 1.868-.436.003 1.392.006 2.785.006 4.967.004 1.534.011 2.278.018 3.022-.005.45-.01.898-.008 1.685"/><path fill="#f2f2f0" d="M53.07 62.82c1.715-4.864 3.431-9.73 5.42-14.833-.065 2.97-.404 6.179-.757 9.525 6.983 1.252 14.285 2.472 15.185 12.254-.55-.214-1.295-.746-1.541-1.452-2.201-6.309-9.933-9.32-16.587-5.799-.89.375-1.306.34-1.72.305M61.12 44.835c4.335-7.739 10.568-13.184 20.454-13.86-.024.964-.371 2.673-.934 2.747-7.337.966-12.565 5.3-17.394 10.393-.403.425-1.17.505-2.126.72"/><path fill="#dbdad9" d="M101.113 32.309c3.871.923 7.836 2.2 12.18 3.25.38-.228.42-.114.42-.114 1.207 1.383 2.413 2.767 3.816 4.4-1.19-.136-2.67-.332-3.947-.945a178 178 0 0 1-12.469-6.591"/><path fill="#f6f6f5" d="M81 147.838c.101-5.752.611-11.515 1.34-17.633 2.967 5.838 1.971 11.791-1.34 17.633"/><path fill="#f2f2f0" d="M76.151 82.822c-1.286-3.804-2.296-7.83-3.307-12.288.72.747 1.791 1.843 2.094 3.121.695 2.935 1.017 5.958 1.213 9.167"/><path fill="#010301" d="M131.62 67.57c.777.786 2.016 1.938 2.281 3.282.397 2.01.109 4.155-.071 6.953-.77.878-1.356 1.046-1.942 1.214-.08-3.665-.16-7.33-.267-11.449"/><path fill="#fafaf9" d="M82.532 121.912c-.85-2.956-1.34-6.005-1.866-9.482 3.523 2.198 4.054 5.522 1.866 9.482"/><path fill="#181b18" d="M131.756 79.402c.718-.551 1.305-.72 2.079-1.137.364 1.58.542 3.41.264 5.233a18 18 0 0 1-2.212-.517c-.087-1.065-.175-2.13-.131-3.579"/><path fill="#040604" d="M132.161 139.417c3.29 1.063 3.15 3.466 2.025 6.388-.66-1.062-.998-2.39-1.39-4.59-.247-1.15-.442-1.43-.636-1.71 0 0 .003-.059.001-.088"/><path fill="#010301" d="M131.79 83.393c.683-.243 1.269-.073 2.037.351.179.7.176 1.147.126 2.259-.722 1.116-1.396 1.567-2.07 2.017-.064-1.405-.128-2.81-.094-4.627"/><path fill="#f2f2f0" d="M83.985 30.929c1.076-.365 2.17-.434 3.653-.363-.83 1.251-1.875 3.734-3.653.363"/><path fill="#181b18" d="M131.753 88.339c.804-.77 1.478-1.22 2.205-2.002.224.86.396 2.049.308 3.448-.731.2-1.203.189-2.028.187-.44-.433-.528-.874-.485-1.633"/><path fill="#f2f2f0" d="M94.073 30.962c.675-.342 1.446-.434 2.586-.387-.585.306-1.537.471-2.586.387M59.106 47.806c.114-.929.609-1.85 1.401-2.906-.142.882-.582 1.897-1.401 2.906"/><path fill="#181b18" d="M120.017 42.29c.223-.033.49.213.817.73-.217.03-.496-.21-.817-.73"/><path fill="#010301" d="M131.974 139.75c.38.035.575.314.834 1.1-.297.052-.658-.403-.834-1.1"/><path fill="#d87317" d="M47.027 98.974c-.303.129-.606.258-1.367.552-3.186.322-5.915.479-8.643.635H14.77l-.14-1.034c6.085-3.124 12.171-6.248 18.84-9.703 2.304-1.666 4.027-3.002 5.75-4.337.545-.402 1.09-.803 2.12-1.515 1.016-1.023 1.55-1.737 2.082-2.45.272-.068.464-.23.886-.83.828-.97 1.347-1.599 1.865-2.227 1.282-2.185 3.043-4.231 3.727-6.59.902-3.114 1.997-4.841 6.15-3.418 1.46-.084 2.21-.105 2.96-.125 3.1-.026 4.877.474 5.326 4.564.764 6.974 1.779 14.212 7.882 19.238 1.359 1.119 2.171 2.9 3.362 4.553-4.465 1.007-8.081 1.823-12.37 2.276-5.842-.105-11.013.153-16.183.411m12.057-21.648c-4.83-1.07-8.049 3.905-6.267 9.777 3.987-1.869 7.027-4.383 6.267-9.777"/><path fill="#01030d" d="M47.17 99.288a122 122 0 0 1 15.634-.752c-4.987.58-10.24.823-15.634.752M37.11 100.537c2.635-.532 5.364-.689 8.468-.757-2.106 4.085-5.284 2.25-8.468.757"/><path fill="#07060b" d="M38.855 85.082c-1.358 1.34-3.08 2.676-5.156 4.077-.627-.562-.901-1.19-.64-2.014 1.002-.517 1.469-.836 1.935-1.154 1.166-.305 2.331-.61 3.861-.91"/><path fill="#181b18" d="M34.86 85.716c-.332.593-.799.912-1.564 1.242-.377-.85-.457-1.712-.536-2.573.656.352 1.311.704 2.1 1.33M138.705 89.145c.279.616.288 1.363.295 2.483-.516.29-1.03.205-1.545.121.327-.825.654-1.65 1.25-2.604M53.81 53.101c-.185.557-.447.848-.709 1.138l-.585-1.565c.406.054.813.108 1.295.427M106.571 30.415c.093-.685.39-1.186.687-1.686.2.198.596.53.566.574-.31.459-.688.871-1.253 1.112M134.309 97.847c-.285-.607-.292-1.351-.287-2.467.196.529.38 1.43.287 2.467M137.398 85.953c.394-.24.786-.239 1.176-.208.012 0 0 .305-.002.468-.392-.005-.784-.01-1.174-.26M113.327 26.738a19 19 0 0 1-1.194 1.702c-.014.018-.411-.268-.63-.412.402-.389.803-.778 1.515-1.281.31-.114.239.026.309-.01M138.965 82.004l-1.526-.713c.315-.404.63-.809 1.247-.92.293.74.286 1.187.279 1.633M123 42c.106.733.212 1.466.013 2.35-.305.15-.383.054-.433.02.086-.548.222-1.062.39-1.973zM53.085 63.137c.4-.282.814-.247 1.539-.262.102.508-.104 1.066-.311 1.624-.404-.348-.808-.697-1.228-1.362"/><path fill="#07060b" d="M43.027 81.123c-.138.712-.67 1.426-1.552 2.23.153-.683.654-1.456 1.552-2.23"/><path fill="#181b18" d="M58.981 67.663c-.72.29-1.47.31-2.593.292.605-.212 1.584-.387 2.593-.292M119.538 38.389c.115-.448.397-.722.696-.975.008-.006.212.22.324.337-.284.271-.568.542-1.02.638M59.297 63.884c-.082-.29.007-.674.217-.758.17-.068.483.227.733.36a2.9 2.9 0 0 1-.95.398M116.882 34.702c-.289.082-.672-.007-.755-.216-.067-.17.226-.482.359-.732.144.242.288.484.396.948"/><path fill="#07060b" d="M45.815 78.086c-.16.607-.679 1.236-1.466 2.017.19-.564.648-1.28 1.466-2.017"/><path fill="#181b18" d="M87.725 27.6c.126-.159.344-.181.562-.204-.157.113-.314.227-.562.204"/><path fill="#080b09" d="M139.194 81.863c-.222-.305-.215-.752-.214-1.533.144.241.293.817.214 1.533"/><path fill="#181b18" d="M54.664 38.605c.235.11.459.28.682.45-.188 0-.376 0-.689-.182-.123-.183-.004-.208.007-.268M113.615 35.31c.115-.235.286-.45.457-.665 0 .186 0 .372-.179.679-.18.12-.22.007-.278-.013M53.638 40.64c.222.11.456.259.69.408-.186.002-.373.003-.66-.191-.1-.196-.017-.176-.03-.216M135.405 52.68c-.102.218-.276.434-.45.651a1.15 1.15 0 0 1 .186-.674c.18-.124.19.023.264.023M123 42l-.361-.424c.084.05.17.099.308.286z"/><path fill="#201812" d="M59.327 77.554c.517 5.166-2.523 7.68-6.51 9.55-1.782-5.873 1.438-10.849 6.51-9.55"/></svg>