<svg version="1.1" id="Layer_1" xmlns="http://www.w3.org/2000/svg" xmlns:xlink="http://www.w3.org/1999/xlink" x="0px" y="0px"
	 width="100%" viewBox="0 0 150 150" enable-background="new 0 0 150 150" xml:space="preserve">
<path fill="#FDFDFD" opacity="1.000000" stroke="none" 
	d="
M71.000000,151.000000 
	C47.688946,151.000000 24.377888,151.000000 1.033416,151.000000 
	C1.033416,101.070030 1.033416,51.140038 1.033416,1.105022 
	C50.882050,1.105022 100.764397,1.105022 150.823364,1.105022 
	C150.823364,50.999447 150.823364,100.999718 150.823364,151.000000 
	C149.997971,151.000000 148.998978,151.000000 147.507141,150.637711 
	C144.838242,147.147934 142.406982,144.161255 140.576065,140.843307 
	C139.360977,138.641388 139.004883,135.965454 138.229080,133.481415 
	C138.193893,133.461121 138.165054,133.385162 138.534760,133.180801 
	C138.950577,124.986320 138.996674,116.996193 139.092178,108.585495 
	C139.160385,106.755043 139.179153,105.345169 139.380127,103.825958 
	C139.562332,103.716629 139.566635,103.291695 139.830475,103.010986 
	C140.221405,99.148796 140.348526,95.567314 140.583344,91.597595 
	C140.618668,90.145088 140.546280,89.080811 140.598206,87.576134 
	C140.654724,84.094803 140.586945,81.053871 140.626678,77.682755 
	C140.662170,76.901001 140.590134,76.449448 140.607452,75.758354 
	C140.622467,75.365448 140.548126,75.212082 140.568100,74.798927 
	C140.598801,74.366226 140.535202,74.193298 140.594635,73.720306 
	C140.654404,72.566772 140.591156,71.713303 140.576324,70.589905 
	C140.491043,70.195290 140.357346,70.070595 140.182312,69.621315 
	C139.454132,68.795738 138.767273,68.294739 138.098129,67.475853 
	C138.429291,66.444016 138.742722,65.730064 139.190125,64.799561 
	C138.982254,64.013321 138.640411,63.443634 138.252930,62.461380 
	C137.297470,58.926296 136.387680,55.803772 135.404663,52.680382 
	C135.331421,52.679520 135.321671,52.533375 135.393860,52.166840 
	C134.896103,50.202518 134.326187,48.604729 133.656677,46.688416 
	C129.009598,40.980694 124.462120,35.591507 119.754288,29.884453 
	C117.528236,28.611788 115.462532,27.656986 113.326782,26.737656 
	C113.256737,26.773125 113.328476,26.633440 113.196022,26.292171 
	C111.028564,25.342861 108.993561,24.734818 106.740868,23.923393 
	C106.015549,23.473377 105.507919,23.226740 104.649063,22.808020 
	C103.531342,22.758890 102.764839,22.881845 101.772690,22.821609 
	C101.063202,22.339617 100.579353,22.040815 99.879539,21.484179 
	C98.777946,21.264008 97.892326,21.301670 96.576157,21.244202 
	C94.094933,21.211891 92.044258,21.274710 89.625702,21.246584 
	C88.507439,21.216253 87.757050,21.276867 86.625549,21.243202 
	C84.157555,21.752230 82.070663,22.355536 79.603142,22.843632 
	C77.478790,23.194603 75.735062,23.660788 73.699905,24.068274 
	C73.194847,24.312016 72.981224,24.614456 72.418221,24.981964 
	C70.129677,25.930405 68.190514,26.813778 66.014801,27.767952 
	C65.516342,28.219744 65.254433,28.600733 64.642555,29.051867 
	C61.087025,32.263210 57.881466,35.404411 54.664284,38.605270 
	C54.652664,38.664925 54.533749,38.690109 54.165718,38.696014 
	C53.740368,39.334538 53.683052,39.967159 53.638199,40.640629 
	C53.650661,40.681480 53.567883,40.660789 53.272430,40.665997 
	C52.588673,41.287693 52.200367,41.904182 51.549835,42.646088 
	C51.099991,43.296181 50.912376,43.820854 50.428757,44.533619 
	C49.739784,45.772034 49.346809,46.822365 48.681900,47.926926 
	C48.361637,48.310539 48.313313,48.639915 48.198166,49.357758 
	C47.760513,51.166332 47.389687,52.586445 46.868736,54.222443 
	C46.355209,54.965282 45.991806,55.492241 45.499420,56.422760 
	C45.009319,58.914528 44.648197,61.002731 44.051369,63.290272 
	C43.553181,63.993111 43.290699,64.496605 42.933910,65.374718 
	C41.410538,68.764656 39.981472,71.779984 38.260399,74.914948 
	C36.315311,76.697220 34.662228,78.359871 32.653015,80.014038 
	C26.530859,82.665115 20.878336,85.619453 14.964901,87.896111 
	C9.708947,89.919632 4.559024,94.902481 4.896081,99.207146 
	C5.349255,104.994774 9.572302,107.081581 14.571869,107.425461 
	C23.173399,108.017090 31.804083,108.202049 40.425568,108.453697 
	C41.112789,108.473755 41.823521,107.688362 42.775246,107.324936 
	C43.355312,107.280693 43.683456,107.188782 44.454376,107.259964 
	C50.595463,107.305122 56.293766,107.187187 62.305325,107.144867 
	C63.037182,107.317345 63.455791,107.414192 63.954990,107.857201 
	C69.883667,109.721107 74.607201,116.082314 74.120522,123.253815 
	C73.490990,132.530411 72.076508,141.753738 71.000000,151.000000 
z"/>
<path fill="#FDFAEF" opacity="1.000000" stroke="none" 
	d="
M135.000000,151.000000 
	C116.645775,151.000000 98.291542,151.000000 79.585396,150.713287 
	C79.686104,149.567444 80.138725,148.708328 81.000610,147.838074 
	C84.311317,141.996033 85.307350,136.043289 82.510605,129.458710 
	C82.365097,126.712440 82.268219,124.358620 82.531906,121.912140 
	C84.719795,117.951935 84.189331,114.627930 80.339668,111.828949 
	C78.973457,109.679367 77.896980,107.703117 76.653435,105.420151 
	C78.477898,104.817924 80.315384,104.566727 81.734665,103.660522 
	C83.923218,102.263138 87.229675,100.606941 87.485855,98.712234 
	C87.791473,96.451752 85.741020,93.536285 84.059105,91.423737 
	C81.639725,88.384895 78.631973,85.814476 76.151443,82.822090 
	C75.954529,79.612877 75.633446,76.589699 74.938072,73.655212 
	C74.635170,72.376945 73.564285,71.280663 72.895477,70.089676 
	C72.948776,70.077637 72.882851,70.164795 72.917618,69.765976 
	C72.018349,59.984211 64.715950,58.764133 57.732841,57.512432 
	C58.086086,54.166042 58.424828,50.957073 58.832741,47.819595 
	C58.901917,47.891079 58.725620,47.798882 59.105621,47.805843 
	C59.925278,46.797329 60.364933,45.781853 60.858383,44.842995 
	C60.912186,44.919617 60.761059,44.809067 61.119774,44.834595 
	C62.076263,44.619820 62.843086,44.539806 63.246067,44.114803 
	C68.074974,39.021988 73.302834,34.687542 80.640060,33.721603 
	C81.202835,33.647518 81.550392,31.938660 82.190933,30.787098 
	C82.911453,30.600937 83.439034,30.617336 83.985168,30.928864 
	C85.763466,34.300159 86.807388,31.817053 88.438583,30.575331 
	C90.558464,30.533897 92.267715,30.622961 94.072861,30.962130 
	C95.121582,31.046392 96.074409,30.880550 97.340042,30.576960 
	C98.775185,30.944410 99.897530,31.449608 101.113319,32.308681 
	C105.326088,34.753510 109.417274,36.903152 113.581596,38.900276 
	C114.859741,39.513245 116.338142,39.708622 117.986160,40.238865 
	C118.823120,40.924919 119.398781,41.467331 120.016937,42.289162 
	C120.338432,42.809536 120.617424,43.050488 120.967834,43.594833 
	C121.536034,44.044315 122.032791,44.190407 122.579575,44.370026 
	C122.629585,44.403557 122.707657,44.499088 122.517868,44.830940 
	C124.529022,49.812534 126.833839,54.416969 128.889496,59.130085 
	C130.009171,61.697247 130.705994,64.448830 131.620743,67.570076 
	C131.727890,71.688271 131.807831,75.353630 131.755905,79.402023 
	C131.711792,80.850319 131.799545,81.915573 131.789169,83.393188 
	C131.755051,85.210503 131.819046,86.615448 131.753326,88.338684 
	C131.710419,89.098206 131.797241,89.539436 131.785736,90.440125 
	C131.193176,97.624229 130.451782,104.342041 130.265335,111.075226 
	C130.014938,120.118416 128.605865,129.326050 132.781311,138.163422 
	C132.568176,138.697968 132.364014,139.042389 132.161316,139.416580 
	C132.162781,139.446365 132.159500,139.505905 131.974365,139.749420 
	C132.149979,140.447449 132.510742,140.901978 132.860718,141.722229 
	C133.187714,143.415329 133.525482,144.742722 133.918396,146.438675 
	C134.315689,148.204834 134.657837,149.602417 135.000000,151.000000 
M97.995567,60.818176 
	C92.301765,60.582233 86.607956,60.346287 80.866081,60.108353 
	C80.428307,64.440453 82.568680,67.043571 88.008369,68.285126 
	C91.534760,69.089996 98.902039,66.054626 99.588936,63.343277 
	C99.759277,62.670879 98.957840,61.752289 97.995567,60.818176 
z"/>
<path fill="#151815" opacity="1.000000" stroke="none" 
	d="
M131.593536,67.117233 
	C130.705994,64.448830 130.009171,61.697247 128.889496,59.130085 
	C126.833839,54.416969 124.529022,49.812534 122.822830,44.681023 
	C123.211731,43.466221 123.105865,42.733189 122.946564,41.862251 
	C122.808296,41.674854 122.723457,41.625359 122.638626,41.575859 
	C122.759087,41.717209 122.879539,41.858562 122.969177,42.396481 
	C122.802078,43.307533 122.665817,43.822014 122.529556,44.336498 
	C122.032791,44.190407 121.536034,44.044315 120.905571,43.324211 
	C120.506065,42.503380 120.240250,42.256557 119.974434,42.009735 
	C119.398781,41.467331 118.823120,40.924919 117.789963,39.988892 
	C116.126274,38.211788 114.920082,36.828308 113.893074,35.323853 
	C114.072014,35.016983 114.071770,34.831089 114.071533,34.645191 
	C113.900551,34.860146 113.729576,35.075104 113.236130,35.538635 
	C108.949074,34.509743 104.984482,33.232277 101.019882,31.954807 
	C99.897530,31.449608 98.775185,30.944410 96.971359,30.437490 
	C95.518913,30.527855 94.747940,30.619940 93.976967,30.712025 
	C92.267715,30.622961 90.558464,30.533897 88.048805,30.435255 
	C86.154465,30.495029 85.060539,30.564381 83.966606,30.633732 
	C83.439034,30.617336 82.911453,30.600937 81.767319,30.772596 
	C71.688110,31.651386 65.454536,37.096451 60.761059,44.809067 
	C60.761059,44.809067 60.912186,44.919617 60.560760,44.976482 
	C59.714764,45.955193 59.220192,46.877037 58.725620,47.798882 
	C58.725620,47.798882 58.901917,47.891079 58.559525,48.058624 
	C56.501251,53.090935 54.785366,57.955708 53.084961,63.137039 
	C53.504601,63.802151 53.908752,64.150696 54.312904,64.499245 
	C54.519608,63.941265 54.726311,63.383282 55.099800,62.465305 
	C61.443535,58.993271 69.175911,62.005287 71.376961,68.314461 
	C71.623253,69.020439 72.368828,69.552223 72.882851,70.164795 
	C72.882851,70.164795 72.948776,70.077637 72.897034,70.521484 
	C73.855309,74.991592 74.865334,79.017860 75.875351,83.044128 
	C78.631973,85.814476 81.639725,88.384895 84.059105,91.423737 
	C85.741020,93.536285 87.791473,96.451752 87.485855,98.712234 
	C87.229675,100.606941 83.923218,102.263138 81.734665,103.660522 
	C80.315384,104.566727 78.477898,104.817924 76.653435,105.420151 
	C77.896980,107.703117 78.973457,109.679367 80.376053,112.256943 
	C81.191895,115.907112 81.681625,118.955963 82.171349,122.004807 
	C82.268219,124.358620 82.365097,126.712440 82.291748,129.812775 
	C81.611465,136.322601 81.101402,142.085892 80.591347,147.849197 
	C80.138725,148.708328 79.686104,149.567444 79.116737,150.713287 
	C76.629440,151.000000 74.258888,151.000000 71.444168,151.000000 
	C72.076508,141.753738 73.490990,132.530411 74.120522,123.253815 
	C74.607201,116.082314 69.883667,109.721107 63.953152,107.521255 
	C63.532082,106.378151 63.193443,105.917137 62.854805,105.456123 
	C62.567230,105.993835 62.279652,106.531540 61.992073,107.069252 
	C56.293766,107.187187 50.595463,107.305122 44.403008,106.904984 
	C42.842224,106.123032 41.775589,105.859138 40.708950,105.595253 
	C41.313740,106.155922 41.918530,106.716599 42.523323,107.277267 
	C41.823521,107.688362 41.112789,108.473755 40.425568,108.453697 
	C31.804083,108.202049 23.173399,108.017090 14.571869,107.425461 
	C9.572302,107.081581 5.349255,104.994774 4.896081,99.207146 
	C4.559024,94.902481 9.708947,89.919632 14.964901,87.896111 
	C20.878336,85.619453 26.530859,82.665115 32.863415,80.272942 
	C37.840572,80.034706 39.633881,78.023445 38.552402,74.795311 
	C39.981472,71.779984 41.410538,68.764656 43.211151,65.349716 
	C43.817493,64.330383 44.052284,63.710659 44.287075,63.090935 
	C44.648197,61.002731 45.009319,58.914528 45.784180,56.410606 
	C46.471569,55.332108 46.745213,54.669331 47.018860,54.006554 
	C47.389687,52.586445 47.760513,51.166332 48.375179,49.219482 
	C48.823296,48.457237 48.934902,48.183887 48.953835,47.872692 
	C49.346809,46.822365 49.739784,45.772034 50.508179,44.889709 
	C51.369984,45.484749 51.856369,45.911785 52.342751,46.338821 
	C52.165852,45.066105 51.988953,43.793385 51.812057,42.520668 
	C52.200367,41.904182 52.588673,41.287693 53.372791,40.862061 
	C53.955345,41.051346 54.142090,41.049770 54.328831,41.048195 
	C54.094467,40.898720 53.860100,40.749249 53.625732,40.599777 
	C53.683052,39.967159 53.740368,39.334538 54.289444,38.879101 
	C54.969547,39.055946 55.157894,39.055607 55.346237,39.055267 
	C55.122795,38.885380 54.899353,38.715496 54.675903,38.545612 
	C57.881466,35.404411 61.087025,32.263210 64.852982,29.313255 
	C66.087303,29.435940 66.761238,29.367384 67.435165,29.298828 
	C67.040558,28.764935 66.645950,28.231041 66.251343,27.697149 
	C68.190514,26.813778 70.129677,25.930405 72.666458,24.928938 
	C73.506493,24.582888 73.748917,24.354929 73.991341,24.126972 
	C75.735062,23.660788 77.478790,23.194603 79.823227,23.116550 
	C82.618179,22.782282 84.812416,22.059879 87.006660,21.337481 
	C87.757050,21.276867 88.507439,21.216253 89.729881,21.592556 
	C92.470192,21.799429 94.738449,21.569380 97.006706,21.339333 
	C97.892326,21.301670 98.777946,21.264008 99.872559,21.795828 
	C100.720482,22.578474 101.359406,22.791637 101.998337,23.004801 
	C102.764839,22.881845 103.531342,22.758890 104.674210,23.097073 
	C105.686569,23.747728 106.322563,23.937250 106.958557,24.126772 
	C108.993561,24.734818 111.028564,25.342861 112.885483,26.405670 
	C112.305977,27.249746 111.904556,27.639057 111.503136,28.028366 
	C111.721588,28.172482 112.118553,28.457930 112.132591,28.440203 
	C112.576912,27.878996 112.984055,27.288361 113.396835,26.702187 
	C115.462532,27.656986 117.528236,28.611788 119.585945,30.101326 
	C119.511749,31.381916 119.096863,32.397224 119.432983,32.832157 
	C122.988243,37.432568 126.588104,42.005264 130.384689,46.405235 
	C130.963531,47.076073 132.605835,46.829300 133.756256,47.006943 
	C134.326187,48.604729 134.896103,50.202518 135.213409,52.290230 
	C134.958588,52.963799 134.956375,53.147438 134.954163,53.331078 
	C135.128738,53.114464 135.303314,52.897854 135.477890,52.681244 
	C136.387680,55.803772 137.297470,58.926296 137.920120,62.522430 
	C137.263824,63.406925 136.894684,63.817814 136.525543,64.228699 
	C137.369080,64.491173 138.212616,64.753639 139.056152,65.016113 
	C138.742722,65.730064 138.429291,66.444016 138.079132,67.832199 
	C138.358490,69.338127 138.674576,70.169830 139.374802,70.964157 
	C140.015259,70.904472 140.271576,70.882149 140.527893,70.859833 
	C140.591156,71.713303 140.654404,72.566772 140.328339,73.801147 
	C139.612976,74.790817 139.286926,75.399590 138.660553,76.052101 
	C136.976913,79.103088 139.669189,77.520668 140.519150,78.012947 
	C140.586945,81.053871 140.654724,84.094803 140.362396,87.626518 
	C139.659866,88.416542 139.317490,88.715767 138.705383,89.144730 
	C138.108856,90.099442 137.782059,90.924416 137.455261,91.749390 
	C137.969727,91.833488 138.484222,91.917580 139.245117,91.996864 
	C139.491547,91.992050 139.983398,91.958168 139.983398,91.958168 
	C139.983398,91.958168 140.475632,91.985832 140.475632,91.985832 
	C140.348526,95.567314 140.221405,99.148796 139.485641,102.852440 
	C137.261261,101.984909 135.645554,100.995209 134.022980,99.668564 
	C134.021210,98.882347 134.026306,98.433075 134.308807,97.846817 
	C134.401886,96.809174 134.217545,95.908516 134.024918,94.590187 
	C134.013306,92.779999 134.009995,91.387482 134.266113,89.785141 
	C134.353775,88.385849 134.182022,87.196388 134.005356,85.672211 
	C134.003159,84.891136 134.005844,84.444786 134.281219,83.751991 
	C134.376617,81.675346 134.199326,79.845146 134.017456,77.554626 
	C134.009811,75.006958 134.298248,72.862061 133.901459,70.852440 
	C133.635971,69.507889 132.396927,68.355568 131.593536,67.117233 
M139.423172,81.722076 
	C139.273483,81.146530 139.123779,80.570976 138.384796,80.077492 
	C138.069489,80.482140 137.754196,80.886795 137.438889,81.291451 
	C137.947495,81.528992 138.456116,81.766541 139.423172,81.722076 
M34.726707,85.441231 
	C34.071156,85.089134 33.415604,84.737045 32.760052,84.384956 
	C32.839367,85.246490 32.918682,86.108032 32.523335,87.342438 
	C32.797878,87.969742 33.072418,88.597046 32.887371,89.755119 
	C26.801380,92.878990 20.715389,96.002853 14.629399,99.126724 
	C14.676208,99.471497 14.723019,99.816277 14.769828,100.161049 
	C22.185612,100.161049 29.601397,100.161049 37.202148,100.912376 
	C40.294266,102.030945 43.471691,103.864914 46.118790,99.360558 
	C46.421474,99.231697 46.724159,99.102837 47.312225,99.602234 
	C52.564518,99.358955 57.816814,99.115677 63.882229,98.925095 
	C67.498505,98.109589 71.114784,97.294075 75.580269,96.287064 
	C74.389008,94.633919 73.576622,92.852585 72.218391,91.734123 
	C66.114899,86.708099 65.100349,79.469627 64.335617,72.495583 
	C63.887150,68.405846 62.109581,67.906487 58.951286,67.393898 
	C57.972240,67.568245 56.993191,67.742592 55.337250,68.121002 
	C51.897198,66.633659 50.801529,68.361015 49.899597,71.475113 
	C49.216480,73.833725 47.454754,75.879936 45.456051,78.105972 
	C44.997250,78.822441 44.538448,79.538902 43.998432,80.634956 
	C43.886246,80.891640 43.694244,81.053841 42.630791,81.124214 
	C42.129337,81.897118 41.627880,82.670021 40.855228,83.881935 
	C40.309971,84.283661 39.764713,84.685387 38.490845,85.076401 
	C37.325260,85.381104 36.159679,85.685814 34.726707,85.441231 
M53.734741,52.835449 
	C53.328613,52.781502 52.922482,52.727554 52.516354,52.673611 
	C52.711369,53.195488 52.906384,53.717361 53.101398,54.239239 
	C53.363304,53.948666 53.625206,53.658092 53.734741,52.835449 
M106.776253,30.599035 
	C107.135796,30.174004 107.514290,29.761797 107.824364,29.303307 
	C107.854057,29.259401 107.457214,28.927034 107.258377,28.728577 
	C106.961121,29.229288 106.663864,29.729998 106.776253,30.599035 
M137.395432,86.199409 
	C137.787521,86.203804 138.179626,86.208199 138.571732,86.212601 
	C138.573166,86.049850 138.585617,85.745689 138.574432,85.744820 
	C138.184235,85.714439 137.791809,85.712601 137.395432,86.199409 
M119.706154,38.564610 
	C119.990250,38.293495 120.274345,38.022381 120.558441,37.751270 
	C120.446030,37.633629 120.242043,37.407555 120.234421,37.413994 
	C119.934822,37.667015 119.653091,37.941189 119.706154,38.564610 
M59.520325,63.919212 
	C59.762478,63.774902 60.004631,63.630592 60.246784,63.486279 
	C59.997055,63.352623 59.683262,63.058495 59.513889,63.126118 
	C59.304329,63.209778 59.214622,63.593647 59.520325,63.919212 
M116.917397,34.479347 
	C116.773537,34.237698 116.629677,33.996048 116.485825,33.754398 
	C116.352608,34.003605 116.059586,34.316208 116.126884,34.485859 
	C116.209732,34.694679 116.592957,34.784340 116.917397,34.479347 
M87.816574,27.736673 
	C87.973373,27.623024 88.130180,27.509373 88.286987,27.395725 
	C88.068893,27.418577 87.850800,27.441429 87.816574,27.736673 
z"/>
<path fill="#181B18" opacity="1.000000" stroke="none" 
	d="
M134.029831,100.005516 
	C135.645554,100.995209 137.261261,101.984909 139.221802,103.133148 
	C139.566635,103.291695 139.562332,103.716629 139.042419,103.977371 
	C136.845871,106.029312 135.627594,107.770493 139.042755,109.006073 
	C138.996674,116.996193 138.950577,124.986320 138.299301,133.463043 
	C137.587357,134.542938 137.480591,135.136246 137.373825,135.729538 
	C137.584381,135.748428 137.794937,135.767319 138.005478,135.786194 
	C138.091736,135.024704 138.177994,134.263199 138.264267,133.501709 
	C139.004883,135.965454 139.360977,138.641388 140.576065,140.843307 
	C142.406982,144.161255 144.838242,147.147934 147.007141,150.637711 
	C143.307098,151.000000 139.614182,151.000000 135.460632,151.000000 
	C134.657837,149.602417 134.315689,148.204834 134.241379,146.173431 
	C135.311813,142.883194 135.450424,140.480316 132.159866,139.386795 
	C132.364014,139.042389 132.568176,138.697968 133.194016,137.761230 
	C133.083054,132.141541 132.018570,127.100945 132.143372,122.089958 
	C132.326981,114.717392 133.359146,107.365952 134.029831,100.005516 
z"/>
<path fill="#181B18" opacity="1.000000" stroke="none" 
	d="
M133.656677,46.688416 
	C132.605835,46.829300 130.963531,47.076073 130.384689,46.405235 
	C126.588104,42.005264 122.988243,37.432568 119.432983,32.832157 
	C119.096863,32.397224 119.511749,31.381916 119.746292,30.419189 
	C124.462120,35.591507 129.009598,40.980694 133.656677,46.688416 
z"/>
<path fill="#181B18" opacity="1.000000" stroke="none" 
	d="
M38.260399,74.914948 
	C39.633881,78.023445 37.840572,80.034706 33.219551,80.281418 
	C34.662228,78.359871 36.315311,76.697220 38.260399,74.914948 
z"/>
<path fill="#181B18" opacity="1.000000" stroke="none" 
	d="
M86.625549,21.243200 
	C84.812416,22.059879 82.618179,22.782282 80.203857,23.231764 
	C82.070663,22.355536 84.157555,21.752230 86.625549,21.243200 
z"/>
<path fill="#181B18" opacity="1.000000" stroke="none" 
	d="
M96.576157,21.244202 
	C94.738449,21.569380 92.470192,21.799429 90.097755,21.683502 
	C92.044258,21.274710 94.094933,21.211891 96.576157,21.244202 
z"/>
<path fill="#040604" opacity="1.000000" stroke="none" 
	d="
M139.092194,108.585495 
	C135.627594,107.770493 136.845871,106.029312 138.860199,104.086700 
	C139.179153,105.345169 139.160385,106.755043 139.092194,108.585495 
z"/>
<path fill="#181B18" opacity="1.000000" stroke="none" 
	d="
M140.626678,77.682755 
	C139.669189,77.520668 136.976913,79.103088 138.902130,76.021317 
	C139.444031,75.946785 139.916153,75.831116 140.063599,75.883820 
	C140.211029,75.936523 140.518097,75.997887 140.518097,75.997887 
	C140.590134,76.449448 140.662170,76.901001 140.626678,77.682755 
z"/>
<path fill="#040705" opacity="1.000000" stroke="none" 
	d="
M42.775246,107.324936 
	C41.918530,106.716599 41.313740,106.155922 40.708950,105.595253 
	C41.775589,105.859138 42.842224,106.123032 43.960232,106.741898 
	C43.683456,107.188782 43.355312,107.280693 42.775246,107.324936 
z"/>
<path fill="#181B18" opacity="1.000000" stroke="none" 
	d="
M139.190125,64.799561 
	C138.212616,64.753639 137.369080,64.491173 136.525543,64.228699 
	C136.894684,63.817814 137.263824,63.406925 137.965759,62.934990 
	C138.640411,63.443634 138.982254,64.013321 139.190125,64.799561 
z"/>
<path fill="#080B09" opacity="1.000000" stroke="none" 
	d="
M140.583344,91.597595 
	C140.475632,91.985832 139.983398,91.958168 139.983398,91.958168 
	C139.983398,91.958168 139.491547,91.992050 139.246490,91.623253 
	C138.992676,90.507973 138.983902,89.761482 138.975128,89.014999 
	C139.317490,88.715767 139.659866,88.416542 140.238068,88.066925 
	C140.546280,89.080811 140.618668,90.145088 140.583344,91.597595 
z"/>
<path fill="#181B18" opacity="1.000000" stroke="none" 
	d="
M51.549828,42.646088 
	C51.988953,43.793385 52.165852,45.066105 52.342751,46.338821 
	C51.856369,45.911785 51.369984,45.484749 50.804180,44.701622 
	C50.912376,43.820854 51.099991,43.296181 51.549828,42.646088 
z"/>
<path fill="#181B18" opacity="1.000000" stroke="none" 
	d="
M66.014801,27.767952 
	C66.645950,28.231041 67.040558,28.764935 67.435165,29.298828 
	C66.761238,29.367384 66.087303,29.435940 65.202950,29.243111 
	C65.254433,28.600733 65.516342,28.219744 66.014801,27.767952 
z"/>
<path fill="#181B18" opacity="1.000000" stroke="none" 
	d="
M138.990677,71.001526 
	C138.674576,70.169830 138.358490,69.338127 138.061401,68.150085 
	C138.767273,68.294739 139.454132,68.795738 139.928772,69.737534 
	C139.474609,70.452728 139.232635,70.727127 138.990677,71.001526 
z"/>
<path fill="#181B18" opacity="1.000000" stroke="none" 
	d="
M46.868736,54.222443 
	C46.745213,54.669331 46.471569,55.332108 45.913162,56.007042 
	C45.991806,55.492241 46.355209,54.965282 46.868736,54.222443 
z"/>
<path fill="#040705" opacity="1.000000" stroke="none" 
	d="
M62.305325,107.144867 
	C62.279652,106.531540 62.567230,105.993835 62.854805,105.456123 
	C63.193443,105.917137 63.532082,106.378151 63.872559,107.175110 
	C63.455791,107.414192 63.037182,107.317345 62.305325,107.144867 
z"/>
<path fill="#181B18" opacity="1.000000" stroke="none" 
	d="
M106.740868,23.923393 
	C106.322563,23.937250 105.686569,23.747728 105.025436,23.269154 
	C105.507919,23.226740 106.015549,23.473377 106.740868,23.923393 
z"/>
<path fill="#181B18" opacity="1.000000" stroke="none" 
	d="
M101.772690,22.821609 
	C101.359406,22.791637 100.720482,22.578474 100.088531,22.053661 
	C100.579353,22.040815 101.063202,22.339617 101.772690,22.821609 
z"/>
<path fill="#181B18" opacity="1.000000" stroke="none" 
	d="
M44.051369,63.290272 
	C44.052284,63.710659 43.817493,64.330383 43.305458,64.975113 
	C43.290699,64.496605 43.553181,63.993111 44.051369,63.290272 
z"/>
<path fill="#040604" opacity="1.000000" stroke="none" 
	d="
M138.229080,133.481415 
	C138.177994,134.263199 138.091736,135.024704 138.005478,135.786194 
	C137.794937,135.767319 137.584381,135.748428 137.373825,135.729538 
	C137.480591,135.136246 137.587357,134.542938 137.929596,133.667404 
	C138.165054,133.385162 138.193893,133.461121 138.229080,133.481415 
z"/>
<path fill="#080B09" opacity="1.000000" stroke="none" 
	d="
M139.916153,75.831116 
	C139.916153,75.831116 139.444031,75.946785 139.202454,75.977570 
	C139.286926,75.399590 139.612976,74.790817 140.205322,74.101212 
	C140.535202,74.193298 140.598801,74.366226 140.433350,74.893227 
	C140.071411,75.423729 139.975357,75.618332 139.916153,75.831116 
z"/>
<path fill="#080B09" opacity="1.000000" stroke="none" 
	d="
M139.374802,70.964157 
	C139.232635,70.727127 139.474609,70.452728 139.970108,70.062119 
	C140.357346,70.070595 140.491043,70.195290 140.576324,70.589905 
	C140.271576,70.882149 140.015259,70.904472 139.374802,70.964157 
z"/>
<path fill="#151815" opacity="1.000000" stroke="none" 
	d="
M140.063599,75.883820 
	C139.975357,75.618332 140.071411,75.423729 140.339050,75.153008 
	C140.548126,75.212082 140.622467,75.365448 140.607452,75.758354 
	C140.518097,75.997887 140.211029,75.936523 140.063599,75.883820 
z"/>
<path fill="#181B18" opacity="1.000000" stroke="none" 
	d="
M73.699905,24.068272 
	C73.748917,24.354929 73.506493,24.582888 73.015839,24.863871 
	C72.981224,24.614456 73.194847,24.312016 73.699905,24.068272 
z"/>
<path fill="#181B18" opacity="1.000000" stroke="none" 
	d="
M48.681900,47.926926 
	C48.934902,48.183887 48.823296,48.457237 48.442001,48.831017 
	C48.313313,48.639915 48.361637,48.310539 48.681900,47.926926 
z"/>
<path fill="#0F100E" opacity="1.000000" stroke="none" 
	d="
M98.299332,60.882523 
	C98.957840,61.752289 99.759277,62.670879 99.588936,63.343277 
	C98.902039,66.054626 91.534760,69.089996 88.008369,68.285126 
	C82.568680,67.043571 80.428307,64.440453 80.866081,60.108353 
	C86.607956,60.346287 92.301765,60.582233 98.299332,60.882523 
z"/>
<path fill="#010301" opacity="1.000000" stroke="none" 
	d="
M134.022980,99.668564 
	C133.359146,107.365952 132.326981,114.717392 132.143372,122.089958 
	C132.018570,127.100945 133.083054,132.141541 133.203003,137.571075 
	C128.605865,129.326050 130.014938,120.118416 130.265335,111.075226 
	C130.451782,104.342041 131.193176,97.624229 132.139465,90.431458 
	C133.063263,89.973885 133.534973,89.984421 134.006699,89.994965 
	C134.009995,91.387482 134.013306,92.779999 134.013321,94.962135 
	C134.017151,96.495773 134.024277,97.239792 134.031403,97.983810 
	C134.026306,98.433075 134.021210,98.882347 134.022980,99.668564 
z"/>
<path fill="#F2F2F0" opacity="1.000000" stroke="none" 
	d="
M53.069477,62.820473 
	C54.785366,57.955708 56.501251,53.090935 58.490353,47.987137 
	C58.424828,50.957073 58.086086,54.166042 57.732841,57.512432 
	C64.715950,58.764133 72.018349,59.984211 72.917618,69.765976 
	C72.368828,69.552223 71.623253,69.020439 71.376961,68.314461 
	C69.175911,62.005287 61.443535,58.993271 54.790421,62.515007 
	C53.899326,62.889961 53.484402,62.855217 53.069477,62.820473 
z"/>
<path fill="#F2F2F0" opacity="1.000000" stroke="none" 
	d="
M61.119774,44.834595 
	C65.454536,37.096451 71.688110,31.651386 81.574371,30.975159 
	C81.550392,31.938660 81.202835,33.647518 80.640060,33.721603 
	C73.302834,34.687542 68.074974,39.021988 63.246067,44.114803 
	C62.843086,44.539806 62.076263,44.619820 61.119774,44.834595 
z"/>
<path fill="#DBDAD9" opacity="1.000000" stroke="none" 
	d="
M101.113319,32.308681 
	C104.984482,33.232277 108.949074,34.509743 113.292915,35.559307 
	C113.672157,35.331406 113.713898,35.444824 113.713898,35.444824 
	C114.920082,36.828308 116.126274,38.211788 117.528656,39.845245 
	C116.338142,39.708622 114.859741,39.513245 113.581596,38.900276 
	C109.417274,36.903152 105.326088,34.753510 101.113319,32.308681 
z"/>
<path fill="#F6F6F5" opacity="1.000000" stroke="none" 
	d="
M81.000610,147.838074 
	C81.101402,142.085892 81.611465,136.322601 82.340385,130.205231 
	C85.307350,136.043289 84.311317,141.996033 81.000610,147.838074 
z"/>
<path fill="#F2F2F0" opacity="1.000000" stroke="none" 
	d="
M76.151443,82.822090 
	C74.865334,79.017860 73.855309,74.991592 72.843735,70.533524 
	C73.564285,71.280663 74.635170,72.376945 74.938072,73.655212 
	C75.633446,76.589699 75.954529,79.612877 76.151443,82.822090 
z"/>
<path fill="#010301" opacity="1.000000" stroke="none" 
	d="
M131.620743,67.570076 
	C132.396927,68.355568 133.635971,69.507889 133.901459,70.852440 
	C134.298248,72.862061 134.009811,75.006958 133.829910,77.804596 
	C133.060562,78.682915 132.474152,78.850945 131.887756,79.018982 
	C131.807831,75.353630 131.727890,71.688271 131.620743,67.570076 
z"/>
<path fill="#FAFAF9" opacity="1.000000" stroke="none" 
	d="
M82.531906,121.912140 
	C81.681625,118.955963 81.191895,115.907112 80.665787,112.430275 
	C84.189331,114.627930 84.719795,117.951935 82.531906,121.912140 
z"/>
<path fill="#181B18" opacity="1.000000" stroke="none" 
	d="
M131.755905,79.402023 
	C132.474152,78.850945 133.060562,78.682915 133.834503,78.264915 
	C134.199326,79.845146 134.376617,81.675346 134.099182,83.497650 
	C133.058731,83.320107 132.473007,83.150467 131.887283,82.980827 
	C131.799545,81.915573 131.711792,80.850319 131.755905,79.402023 
z"/>
<path fill="#040604" opacity="1.000000" stroke="none" 
	d="
M132.161316,139.416580 
	C135.450424,140.480316 135.311813,142.883194 134.186249,145.804855 
	C133.525482,144.742722 133.187714,143.415329 132.796844,141.215668 
	C132.549026,140.064224 132.354263,139.785065 132.159500,139.505905 
	C132.159500,139.505905 132.162781,139.446365 132.161316,139.416580 
z"/>
<path fill="#010301" opacity="1.000000" stroke="none" 
	d="
M131.789169,83.393188 
	C132.473007,83.150467 133.058731,83.320107 133.826508,83.744095 
	C134.005844,84.444786 134.003159,84.891136 133.952637,86.002594 
	C133.230896,87.118599 132.556976,87.569504 131.883057,88.020401 
	C131.819046,86.615448 131.755051,85.210503 131.789169,83.393188 
z"/>
<path fill="#F2F2F0" opacity="1.000000" stroke="none" 
	d="
M83.985168,30.928862 
	C85.060539,30.564381 86.154465,30.495029 87.638176,30.565754 
	C86.807388,31.817053 85.763466,34.300159 83.985168,30.928862 
z"/>
<path fill="#181B18" opacity="1.000000" stroke="none" 
	d="
M131.753326,88.338684 
	C132.556976,87.569504 133.230896,87.118599 133.957535,86.337311 
	C134.182022,87.196388 134.353775,88.385849 134.266113,89.785133 
	C133.534973,89.984421 133.063263,89.973885 132.237793,89.972015 
	C131.797241,89.539436 131.710419,89.098206 131.753326,88.338684 
z"/>
<path fill="#F2F2F0" opacity="1.000000" stroke="none" 
	d="
M94.072861,30.962128 
	C94.747940,30.619940 95.518913,30.527855 96.658569,30.575239 
	C96.074409,30.880550 95.121582,31.046392 94.072861,30.962128 
z"/>
<path fill="#F2F2F0" opacity="1.000000" stroke="none" 
	d="
M59.105621,47.805843 
	C59.220192,46.877037 59.714764,45.955193 60.506958,44.899864 
	C60.364933,45.781853 59.925278,46.797329 59.105621,47.805843 
z"/>
<path fill="#181B18" opacity="1.000000" stroke="none" 
	d="
M120.016937,42.289162 
	C120.240250,42.256557 120.506065,42.503380 120.834137,43.020821 
	C120.617424,43.050488 120.338432,42.809536 120.016937,42.289162 
z"/>
<path fill="#010301" opacity="1.000000" stroke="none" 
	d="
M131.974365,139.749420 
	C132.354263,139.785065 132.549026,140.064224 132.807648,140.849945 
	C132.510742,140.901978 132.149979,140.447449 131.974365,139.749420 
z"/>
<path fill="#D87317" opacity="1.000000" stroke="none" 
	d="
M47.026844,98.973976 
	C46.724159,99.102837 46.421474,99.231697 45.660374,99.526001 
	C42.473698,99.847977 39.745441,100.004509 37.017181,100.161049 
	C29.601397,100.161049 22.185612,100.161049 14.769828,100.161049 
	C14.723019,99.816277 14.676208,99.471497 14.629399,99.126724 
	C20.715389,96.002853 26.801380,92.878990 33.469681,89.423965 
	C35.774483,87.757576 37.496967,86.422340 39.219452,85.087105 
	C39.764713,84.685387 40.309971,84.283661 41.339272,83.572052 
	C42.356350,82.548637 42.889389,81.835098 43.422424,81.121559 
	C43.694244,81.053841 43.886246,80.891640 44.308258,80.292496 
	C45.136398,79.321739 45.654713,78.693459 46.173023,78.065170 
	C47.454754,75.879936 49.216480,73.833725 49.899597,71.475113 
	C50.801529,68.361015 51.897198,66.633659 56.049080,68.057083 
	C57.510853,67.972824 58.260792,67.952484 59.010735,67.932137 
	C62.109581,67.906487 63.887150,68.405846 64.335617,72.495583 
	C65.100349,79.469627 66.114899,86.708099 72.218391,91.734123 
	C73.576622,92.852585 74.389008,94.633919 75.580269,96.287064 
	C71.114784,97.294075 67.498505,98.109589 63.210510,98.562714 
	C57.368145,98.458221 52.197495,98.716095 47.026844,98.973976 
M59.084332,77.325783 
	C54.254761,76.255081 51.035175,81.231201 52.816719,87.103386 
	C56.803951,85.234146 59.843517,82.719910 59.084332,77.325783 
z"/>
<path fill="#01030D" opacity="1.000000" stroke="none" 
	d="
M47.169533,99.288101 
	C52.197495,98.716095 57.368145,98.458221 62.803951,98.536369 
	C57.816814,99.115677 52.564518,99.358955 47.169533,99.288101 
z"/>
<path fill="#01030D" opacity="1.000000" stroke="none" 
	d="
M37.109665,100.536713 
	C39.745441,100.004509 42.473698,99.847977 45.577942,99.780121 
	C43.471691,103.864914 40.294266,102.030945 37.109665,100.536713 
z"/>
<path fill="#07060B" opacity="1.000000" stroke="none" 
	d="
M38.855148,85.081757 
	C37.496967,86.422340 35.774483,87.757576 33.699478,89.158585 
	C33.072418,88.597046 32.797878,87.969742 33.058880,87.144531 
	C34.060982,86.627914 34.527538,86.309212 34.994095,85.990517 
	C36.159679,85.685814 37.325260,85.381104 38.855148,85.081757 
z"/>
<path fill="#181B18" opacity="1.000000" stroke="none" 
	d="
M34.860401,85.715874 
	C34.527538,86.309212 34.060982,86.627914 33.296211,86.958092 
	C32.918682,86.108032 32.839367,85.246490 32.760052,84.384956 
	C33.415604,84.737045 34.071156,85.089134 34.860401,85.715874 
z"/>
<path fill="#181B18" opacity="1.000000" stroke="none" 
	d="
M138.705383,89.144730 
	C138.983902,89.761482 138.992676,90.507973 139.000076,91.628067 
	C138.484222,91.917580 137.969727,91.833488 137.455261,91.749390 
	C137.782059,90.924416 138.108856,90.099442 138.705383,89.144730 
z"/>
<path fill="#181B18" opacity="1.000000" stroke="none" 
	d="
M53.810925,53.101482 
	C53.625206,53.658092 53.363304,53.948666 53.101398,54.239239 
	C52.906384,53.717361 52.711369,53.195488 52.516354,52.673611 
	C52.922482,52.727554 53.328613,52.781502 53.810925,53.101482 
z"/>
<path fill="#181B18" opacity="1.000000" stroke="none" 
	d="
M106.571426,30.414871 
	C106.663864,29.729998 106.961121,29.229288 107.258377,28.728579 
	C107.457214,28.927034 107.854057,29.259401 107.824364,29.303307 
	C107.514290,29.761797 107.135796,30.174004 106.571426,30.414871 
z"/>
<path fill="#181B18" opacity="1.000000" stroke="none" 
	d="
M134.308807,97.846817 
	C134.024277,97.239792 134.017151,96.495773 134.021622,95.379807 
	C134.217545,95.908516 134.401886,96.809174 134.308807,97.846817 
z"/>
<path fill="#181B18" opacity="1.000000" stroke="none" 
	d="
M137.397568,85.953064 
	C137.791809,85.712601 138.184235,85.714439 138.574432,85.744820 
	C138.585617,85.745689 138.573166,86.049850 138.571716,86.212601 
	C138.179626,86.208199 137.787521,86.203804 137.397568,85.953064 
z"/>
<path fill="#181B18" opacity="1.000000" stroke="none" 
	d="
M113.326782,26.737656 
	C112.984055,27.288361 112.576912,27.878996 112.132591,28.440203 
	C112.118553,28.457930 111.721588,28.172482 111.503136,28.028366 
	C111.904556,27.639057 112.305977,27.249746 113.017937,26.746939 
	C113.328476,26.633440 113.256737,26.773125 113.326782,26.737656 
z"/>
<path fill="#181B18" opacity="1.000000" stroke="none" 
	d="
M138.964722,82.004082 
	C138.456116,81.766541 137.947495,81.528992 137.438889,81.291451 
	C137.754196,80.886795 138.069489,80.482140 138.685791,80.371284 
	C138.979431,81.111412 138.972076,81.557747 138.964722,82.004082 
z"/>
<path fill="#181B18" opacity="1.000000" stroke="none" 
	d="
M123.000000,42.000153 
	C123.105865,42.733189 123.211731,43.466221 123.012627,44.349174 
	C122.707657,44.499088 122.629585,44.403557 122.579575,44.370026 
	C122.665817,43.822014 122.802078,43.307533 122.969177,42.396523 
	C123.000000,42.000000 123.000000,42.000153 123.000000,42.000153 
z"/>
<path fill="#181B18" opacity="1.000000" stroke="none" 
	d="
M53.084961,63.137039 
	C53.484402,62.855217 53.899326,62.889961 54.623634,62.875000 
	C54.726311,63.383282 54.519608,63.941265 54.312904,64.499245 
	C53.908752,64.150696 53.504601,63.802151 53.084961,63.137039 
z"/>
<path fill="#07060B" opacity="1.000000" stroke="none" 
	d="
M43.026608,81.122887 
	C42.889389,81.835098 42.356350,82.548637 41.474869,83.352547 
	C41.627880,82.670021 42.129337,81.897118 43.026608,81.122887 
z"/>
<path fill="#181B18" opacity="1.000000" stroke="none" 
	d="
M58.981010,67.663017 
	C58.260792,67.952484 57.510853,67.972824 56.387527,67.955055 
	C56.993191,67.742592 57.972240,67.568245 58.981010,67.663017 
z"/>
<path fill="#181B18" opacity="1.000000" stroke="none" 
	d="
M119.537598,38.388611 
	C119.653091,37.941189 119.934822,37.667015 120.234421,37.413994 
	C120.242043,37.407555 120.446030,37.633629 120.558441,37.751266 
	C120.274345,38.022381 119.990250,38.293495 119.537598,38.388611 
z"/>
<path fill="#181B18" opacity="1.000000" stroke="none" 
	d="
M59.296730,63.883514 
	C59.214622,63.593647 59.304329,63.209778 59.513889,63.126118 
	C59.683262,63.058495 59.997055,63.352623 60.246784,63.486282 
	C60.004631,63.630592 59.762478,63.774902 59.296730,63.883514 
z"/>
<path fill="#181B18" opacity="1.000000" stroke="none" 
	d="
M116.881874,34.702427 
	C116.592957,34.784340 116.209732,34.694679 116.126884,34.485859 
	C116.059586,34.316208 116.352608,34.003605 116.485825,33.754398 
	C116.629677,33.996048 116.773537,34.237698 116.881874,34.702427 
z"/>
<path fill="#07060B" opacity="1.000000" stroke="none" 
	d="
M45.814537,78.085571 
	C45.654713,78.693459 45.136398,79.321739 44.348869,80.102692 
	C44.538448,79.538902 44.997250,78.822441 45.814537,78.085571 
z"/>
<path fill="#181B18" opacity="1.000000" stroke="none" 
	d="
M87.724640,27.600477 
	C87.850800,27.441429 88.068893,27.418577 88.286987,27.395725 
	C88.130180,27.509373 87.973373,27.623024 87.724640,27.600477 
z"/>
<path fill="#080B09" opacity="1.000000" stroke="none" 
	d="
M139.193939,81.863083 
	C138.972076,81.557747 138.979431,81.111412 138.980438,80.330254 
	C139.123779,80.570976 139.273483,81.146530 139.193939,81.863083 
z"/>
<path fill="#181B18" opacity="1.000000" stroke="none" 
	d="
M54.664284,38.605270 
	C54.899353,38.715496 55.122795,38.885380 55.346237,39.055267 
	C55.157894,39.055607 54.969547,39.055946 54.657478,38.873196 
	C54.533749,38.690109 54.652664,38.664925 54.664284,38.605270 
z"/>
<path fill="#181B18" opacity="1.000000" stroke="none" 
	d="
M113.615372,35.310730 
	C113.729576,35.075104 113.900551,34.860146 114.071533,34.645191 
	C114.071770,34.831089 114.072014,35.016983 113.893074,35.323853 
	C113.713898,35.444824 113.672157,35.331406 113.615372,35.310730 
z"/>
<path fill="#181B18" opacity="1.000000" stroke="none" 
	d="
M53.638199,40.640629 
	C53.860100,40.749249 54.094467,40.898720 54.328831,41.048195 
	C54.142090,41.049770 53.955345,41.051346 53.668243,40.856857 
	C53.567883,40.660789 53.650661,40.681480 53.638199,40.640629 
z"/>
<path fill="#181B18" opacity="1.000000" stroke="none" 
	d="
M135.404663,52.680382 
	C135.303314,52.897854 135.128738,53.114464 134.954163,53.331078 
	C134.956375,53.147438 134.958588,52.963799 135.141235,52.656769 
	C135.321671,52.533375 135.331421,52.679520 135.404663,52.680382 
z"/>
<path fill="#181B18" opacity="1.000000" stroke="none" 
	d="
M123.000000,41.999954 
	C122.879539,41.858562 122.759087,41.717209 122.638626,41.575859 
	C122.723457,41.625359 122.808296,41.674854 122.946564,41.862251 
	C123.000000,42.000153 123.000000,42.000000 123.000000,41.999954 
z"/>
<path fill="#201812" opacity="1.000000" stroke="none" 
	d="
M59.326572,77.553993 
	C59.843517,82.719910 56.803951,85.234146 52.816719,87.103386 
	C51.035175,81.231201 54.254761,76.255081 59.326572,77.553993 
z"/>
</svg>
